<svg id="Layer_1" data-name="Layer 1" xmlns="http://www.w3.org/2000/svg" xmlns:xlink="http://www.w3.org/1999/xlink" viewBox="0 0 64 64"><defs><style>.cls-1{fill:none;}.cls-2{clip-path:url(#clip-path);}.cls-3{fill:#6c717b;}.cls-4{fill:#fff;}</style><clipPath id="clip-path"><rect class="cls-1" x="0.5" y="0.49" width="63" height="63"/></clipPath></defs><title>Artboard 2</title><g class="cls-2"><path class="cls-3" d="M63.5,32A31.5,31.5,0,1,1,32,.49,31.5,31.5,0,0,1,63.5,32"/><path class="cls-4" d="M45,38.67,38.41,37,38,35.52a21.58,21.58,0,0,0,7-2.18.86.86,0,0,0,.09-1.41S42,29.38,42,20.63C42,13.24,40.26,9.5,36.85,9.5h-.5c-1.23-1.19-2.15-1.71-4.63-1.71C28.5,7.79,21.45,11,21.45,20.63c0,8.75-3.06,11.27-3.08,11.29a.86.86,0,0,0,.07,1.42,21.35,21.35,0,0,0,7,2.18L25,37l-6.56,1.64A9.61,9.61,0,0,0,11.18,48a.86.86,0,0,0,.85.86H51.4a.87.87,0,0,0,.86-.86A9.62,9.62,0,0,0,45,38.67"/></g></svg>