<svg id="Layer_1" data-name="Layer 1" xmlns="http://www.w3.org/2000/svg" xmlns:xlink="http://www.w3.org/1999/xlink" width="383" height="368" viewBox="0 0 383 368"><defs><style>.cls-1{fill:none;}.cls-2{fill:#b2e2d3;}.cls-3{fill:#fff;}.cls-4{fill:#474f59;}.cls-5{fill:#474e5a;}.cls-6{clip-path:url(#clip-path);}.cls-7{fill:#ffbe32;}.cls-8{fill:#ffbe33;}</style><clipPath id="clip-path"><rect class="cls-1" x="69.83" y="135.89" width="209.91" height="281.28"/></clipPath></defs><title>Artboard 1 copy 2</title><rect class="cls-2" x="0.17" y="-0.17" width="382.67" height="368.33"/><rect class="cls-3" x="295.26" y="56.24" width="35.59" height="311.12"/><polyline class="cls-4" points="330.85 73 317.21 73 317.21 77.91 330.85 77.91"/><rect class="cls-4" x="317.21" y="95.49" width="13.64" height="4.91"/><rect class="cls-4" x="317.21" y="140.48" width="13.64" height="4.91"/><polyline class="cls-4" points="330.85 162.98 317.21 162.98 317.21 167.89 330.85 167.89"/><polyline class="cls-4" points="330.85 185.47 317.21 185.47 317.21 190.38 330.85 190.38"/><polyline class="cls-4" points="330.85 207.97 317.21 207.97 317.21 212.88 330.85 212.88"/><polyline class="cls-4" points="330.85 230.46 317.21 230.46 317.21 235.37 330.85 235.37"/><polyline class="cls-4" points="330.85 252.96 317.21 252.96 317.21 257.87 330.85 257.87"/><polyline class="cls-4" points="330.85 275.45 317.21 275.45 317.21 280.36 330.85 280.36"/><polyline class="cls-4" points="330.85 297.94 317.21 297.94 317.21 302.86 330.85 302.86"/><polyline class="cls-4" points="330.85 320.44 317.21 320.44 317.21 325.35 330.85 325.35"/><polyline class="cls-4" points="330.85 342.93 317.21 342.93 317.21 347.84 330.85 347.84"/><rect class="cls-4" x="317.21" y="117.99" width="13.64" height="4.91"/><polygon class="cls-5" points="330.85 95.49 330.85 95.49 317.21 95.49 317.21 100.4 330.85 100.4 330.85 95.49"/><polygon class="cls-5" points="330.85 117.99 330.85 117.99 317.21 117.99 317.21 122.9 330.85 122.9 330.85 117.99"/><g class="cls-6"><path class="cls-7" d="M88.82,290.92c2.69,8.91,2.51,12.43,1.76,13.56,19.8,36.44,39.44,54.68,55.14,63.69h62.51C233,351,244.63,311.9,246.77,298.64c4.65-.62,12.07-1.56,18.38-22.54,8-26.62.67-32-7.64-32.26h-1.33c.33-.32.33-.32.33-.63,1.33-4.07,8-28.5-14.63-43.22-17.95,4.07-45.54,4.7-82.77-10.34-71.48-28.5-77.79,54.19-77.79,54.19l12.82-1.4C87.13,243.86,81.12,264.91,88.82,290.92Z"/><path class="cls-5" d="M173,196.89s16.08,21.92,64,33.33c17.64,4.19-6,87.1-11.12,138H279.6c.23-6.17.18-13-.18-20.44-1.06-21.49,4.59-90.83-29.14-149.34a192.11,192.11,0,0,0-13.34-20.22H145.68c.23,1,.38,1.49.38,1.49Z"/><path class="cls-5" d="M70.46,368.17h56.27c2.39-49.19-27.57-138.38-10-138,55.49,1.35,83.31-43.54,83.31-43.54l-1-7s.16-.54.38-1.49H97.3a118.31,118.31,0,0,0-10.53,20.35C62.12,259.55,71.64,308.3,71.66,336,71.67,349.38,70.86,359.88,70.46,368.17Z"/></g><path class="cls-8" d="M355.24,179.86H44.43l37.07-26H355.24c7.46,0,7.46,26,0,26"/></svg>