<svg id="Layer_1" data-name="Layer 1" xmlns="http://www.w3.org/2000/svg" xmlns:xlink="http://www.w3.org/1999/xlink" viewBox="0 0 64 64"><defs><style>.cls-1{fill:none;}.cls-2{clip-path:url(#clip-path);}.cls-3{fill:#6c717b;}.cls-4{fill:#fff;}</style><clipPath id="clip-path"><rect class="cls-1" x="0.51" y="0.49" width="63" height="63"/></clipPath></defs><title>Artboard 2 copy 2</title><g class="cls-2"><path class="cls-3" d="M63.51,32A31.5,31.5,0,1,1,32,.49,31.5,31.5,0,0,1,63.51,32"/><path class="cls-4" d="M25.83,34.79c-1.75,2-10.88,3-13.19,5.26C11,41.66,9,48.2,10.55,48.2c8.3,0,29.78.44,43.75,0,1.06,0,.57-1.62.41-2.63-.85-5.22-2.7-6.82-6.51-7.42a36.51,36.51,0,0,1-9.28-2.91.73.73,0,0,1-.3-.25c-1.21-1.11-.8-3.66-.8-5.42,1.3-1.3,2.3-4.71,2.3-4.71s1.36-.15,1.71-2.61c.4-3.06-1.11-2.61-1.11-2.61s.05-.05.05-.3A35.52,35.52,0,0,0,40.92,15c0-3.46-1.3-7.77-8.67-7.77S23,12.32,23.32,14.73c.15,1,.4,3.21.56,4.26a2.27,2.27,0,0,1,.05.4s-1.36-.5-1.11,2.56,1.11,2.66,1.56,3.11a11.35,11.35,0,0,0,2.45,4.81c0,1.51.51,2.61-.85,4.72Z"/></g></svg>