<svg id="Layer_1" data-name="Layer 1" xmlns="http://www.w3.org/2000/svg" width="383" height="368" viewBox="0 0 383 368"><defs><style>.cls-1{fill:#b2e2d3;}.cls-2{fill:#fff;}.cls-3{fill:#ffbe32;}.cls-4{fill:none;}</style></defs><title>Artboard 1</title><rect class="cls-1" x="0.17" y="0.17" width="382.67" height="368"/><path class="cls-2" d="M358.11,368.37V37.22A6.35,6.35,0,0,0,352,30.65H30.35a6.35,6.35,0,0,0-6.1,6.57V368.37Z"/><path class="cls-3" d="M229.65,325.68c-.2,5.36-1.76,12.48-3.52,20.5-1.52,6.95-3.19,14.58-4.24,22.18h70.66c.83-6.28,1.45-12.68,2-18.88,1.31-13.69,2.54-26.41,5.77-35.16,4.71-12.74,7.47-23.25,8.83-32.17a77.57,77.57,0,0,0,.45-22.54,36.73,36.73,0,0,0-1.45-6c-1.19-4-2.33-7.67-1-12.92l0-.15.07-.15c1.72-3.81,3.52-9,3.09-13.32-.37-3.75-1.79-7.21-7.51-6.74-3.31.35-4,4.74-4.76,7.41-.1.38-1.25,9.29-1.31,10.76a1.55,1.55,0,0,1-1.64,1.42,1.53,1.53,0,0,1-1.55-1.51A48.44,48.44,0,0,1,295,227.05c.85-3.05,3-7.14,3.54-8.44a18.06,18.06,0,0,0,1.21-4.2c0-2.64.51-5-1-8.54-1.91-3-2.29-4.72-6.42-5.07-5.44-.45-6,5.9-6.79,8.69a45.88,45.88,0,0,0-1.3,10.78,1.54,1.54,0,0,1-1.65,1.41,1.52,1.52,0,0,1-1.54-1.51,48.44,48.44,0,0,1,1.39-11.39c.81-2.95,3.87-8.71,4.16-9.46a3.65,3.65,0,0,0,.28-1.24,7.08,7.08,0,0,0-1.4-5.94,13.21,13.21,0,0,0-3.9-3.36,15,15,0,0,0-4.4-1.9,3.42,3.42,0,0,0-2.79.21c-1.75.91-4.16,7-5,9.93a45.79,45.79,0,0,0-1.3,10.77,1.56,1.56,0,0,1-1.65,1.42,1.53,1.53,0,0,1-1.55-1.51,55.27,55.27,0,0,1,1-9.81,35,35,0,0,1,1.07-3.73,47.2,47.2,0,0,1,3.95-8.13l.12-.81a5,5,0,0,0-1.4-4.06,11.71,11.71,0,0,0-5.51-3.19,16.49,16.49,0,0,0-7.1-.37c-.27,0-.52.09-.77.15h0c-.36.09-.69.18-1,.29-1.67.71-2.84,2.5-3.62,4.76q-.24.67-.42,1.38c-.12.73-.27,1.42-.43,2.08a36.53,36.53,0,0,0-.14,10.2c.11.84.17,1.25.23,1.66a34.71,34.71,0,0,1,.51,6.42,9.68,9.68,0,0,1-1.63,5.5c-1.26,1.63-3.21,2.52-6.19,2.07a5.56,5.56,0,0,1-4.3-2.81,8.39,8.39,0,0,1-.65-5.41,15.08,15.08,0,0,1,1.39-4.16,17.7,17.7,0,0,1,3.09-4.81,26.58,26.58,0,0,0,4.57-9.37c.11-.64.24-1.27.4-1.88a37.33,37.33,0,0,0,.5-6.39h0c-.56-4.32-4.75-8.19-10-10.21a21.63,21.63,0,0,0-9.19-1.44,16,16,0,0,0-8.56,3.11c-5.92,4.48-9.57,14.15-6.62,31.63,1.57,9.31-.8,14.84-3.59,21.34a60.91,60.91,0,0,0-5.25,17.78c-1.94,15.69,5.09,30.45,12.05,45,6.46,13.55,12.84,26.94,12.29,41.16"/><path class="cls-3" d="M75.12,240.57l0,.15c1.33,5.24.2,9-1,12.92a37.53,37.53,0,0,0-1.45,6,77.92,77.92,0,0,0,.45,22.54c1.36,8.92,4.13,19.43,8.84,32.17,3.22,8.75,4.45,21.47,5.76,35.16.6,6.2,1.21,12.6,2,18.89h70.66c-1-7.61-2.71-15.24-4.24-22.19-1.75-8-3.31-15.14-3.52-20.5-.55-14.22,5.84-27.62,12.3-41.16,6.95-14.57,14-29.33,12-45a60.3,60.3,0,0,0-5.25-17.78c-2.79-6.5-5.16-12-3.58-21.34,2.94-17.48-.7-27.15-6.62-31.63a16,16,0,0,0-8.57-3.1,21.54,21.54,0,0,0-9.18,1.42c-5.3,2-9.49,5.9-10.05,10.22h0a35.41,35.41,0,0,0,.5,6.39c.15.61.28,1.24.39,1.88a26.58,26.58,0,0,0,4.57,9.37,18,18,0,0,1,3.1,4.81,15.18,15.18,0,0,1,1.38,4.16,8.39,8.39,0,0,1-.65,5.41,5.54,5.54,0,0,1-4.3,2.81c-3,.45-4.93-.44-6.18-2.07a9.68,9.68,0,0,1-1.63-5.5,33.07,33.07,0,0,1,.51-6.42c.06-.41.11-.82.22-1.66a36.89,36.89,0,0,0-.13-10.2c-.17-.66-.31-1.35-.44-2.08q-.18-.7-.42-1.38c-.78-2.26-1.94-4.05-3.62-4.76-.32-.11-.65-.2-1-.29h0c-.26-.06-.51-.11-.78-.15a16.44,16.44,0,0,0-7.09.37,11.69,11.69,0,0,0-5.52,3.19,5,5,0,0,0-1.4,4.06l.12.81a46.48,46.48,0,0,1,4,8.13,35,35,0,0,1,1.07,3.73,53.46,53.46,0,0,1,1,9.81,1.53,1.53,0,0,1-1.55,1.51,1.55,1.55,0,0,1-1.64-1.42A45.23,45.23,0,0,0,112.93,197c-.8-2.91-3.21-9-5-9.93a3.44,3.44,0,0,0-2.8-.21,14.83,14.83,0,0,0-4.39,1.9,13.09,13.09,0,0,0-3.9,3.36,7.05,7.05,0,0,0-1.4,5.94,3.75,3.75,0,0,0,.27,1.24c.29.75,3.36,6.51,4.16,9.46a48.4,48.4,0,0,1,1.4,11.39,1.53,1.53,0,0,1-1.55,1.51,1.55,1.55,0,0,1-1.65-1.41,45.88,45.88,0,0,0-1.3-10.78c-.76-2.79-1.34-9.14-6.78-8.69-4.14.35-4.52,2.1-6.43,5.07-1.52,3.49-1,5.9-1,8.54a18.57,18.57,0,0,0,1.21,4.2c.51,1.3,2.7,5.39,3.54,8.44a48.44,48.44,0,0,1,1.39,11.39,1.51,1.51,0,0,1-1.54,1.5,1.53,1.53,0,0,1-1.65-1.41c-.05-1.47-1.2-10.38-1.31-10.76-.73-2.67-1.45-7.07-4.75-7.41-5.73-.47-7.15,3-7.52,6.74-.43,4.35,1.38,9.51,3.09,13.32Z"/><rect class="cls-4" x="0.34" y="0.63" width="381.7" height="367.74"/></svg>